<?xml version="1.0" standalone="no"?><!DOCTYPE svg PUBLIC "-//W3C//DTD SVG 1.1//EN" "http://www.w3.org/Graphics/SVG/1.1/DTD/svg11.dtd"><svg t="1669662072040" class="icon" viewBox="0 0 1024 1024" version="1.1" xmlns="http://www.w3.org/2000/svg" p-id="4448" width="32" height="32" xmlns:xlink="http://www.w3.org/1999/xlink"><path d="M848 464v64a334.88 334.88 0 0 0-98.4-237.6C537.44 78.24 176 230.72 176 528c0-72.16-3.84-121.28 25.28-192A336 336 0 0 1 848 464z" fill="#FFE5C0" p-id="4449"></path><path d="M848 528v80a224 224 0 0 1-224 224H400a224 224 0 0 1-224-224c0-84-4.8-135.2 25.28-208A336 336 0 0 1 848 528z" fill="#FEF5E3" p-id="4450"></path><path d="M784 433.44v204.8a96 96 0 0 1-64 90.72 597.28 597.28 0 0 1-415.04 0 96 96 0 0 1-64-90.72v-204.8a96 96 0 0 1 64-90.4c25.44-9.28 98.56-32 119.2-32L464 352h96c45.12-45.12 40-41.44 41.6-41.44a640 640 0 0 1 119.04 32A96 96 0 0 1 784 433.44z" fill="#2DE0C7" p-id="4451"></path><path d="M714.24 340.8L469.76 764.16c-12.16 0-23.84-1.76-35.2-3.2L683.2 330.24c10.24 3.2 20.8 6.72 31.04 10.56zM624 314.72l-251.2 435.2a682.88 682.88 0 0 1-68.8-20.96c-3.36-1.28-19.36 28.64 215.04-376.96H560l41.44-41.44c1.6 0 21.6 3.84 22.56 4.16z" fill="#93E6D9" p-id="4452"></path><path d="M848 624c-1.6 0 0 9.76 0-176a48 48 0 0 1 48 48v80a48 48 0 0 1-48 48zM176 624c1.6 0 0 9.76 0-176a48 48 0 0 0-48 48v80a48 48 0 0 0 48 48z" fill="#cdcdcd" p-id="4453" data-spm-anchor-id="a313x.7781069.0.i39" class="selected"></path><path d="M768 784v48a64 64 0 0 1-64 64H320a64 64 0 0 1-64-64v-48h5.6A223.04 223.04 0 0 0 400 832h224a223.04 223.04 0 0 0 138.4-48z" fill="#cdcdcd" p-id="4454" data-spm-anchor-id="a313x.7781069.0.i38" class="selected"></path><path d="M880 512V176a16 16 0 0 1 32 0v336a16 16 0 0 1-32 0z" fill="#cdcdcd" p-id="4455" data-spm-anchor-id="a313x.7781069.0.i40" class="selected"></path><path d="M299.04 744A112.96 112.96 0 0 1 224 638.24v-204.8a112 112 0 0 1 73.92-105.44 649.6 649.6 0 0 1 121.92-33.28c10.88-1.76 12.48 2.88 50.72 41.28h82.88c40.16-40.16 40.32-42.88 50.72-41.28a649.6 649.6 0 0 1 121.92 33.28A112 112 0 0 1 800 433.44V496a16 16 0 0 1-32 0v-62.56a80 80 0 0 0-52.8-75.36 640 640 0 0 0-108.32-30.4l-35.52 35.68c-6.56 6.4-4.8 4.64-107.36 4.64-8.8 0-8.8-2.24-46.88-40.32a640 640 0 0 0-108.32 30.4 80 80 0 0 0-52.8 75.36v204.8a80 80 0 0 0 53.92 75.68 586.88 586.88 0 0 0 404.16 0A80 80 0 0 0 768 638.24V560a16 16 0 0 1 32 0v78.24a112.96 112.96 0 0 1-75.04 105.76 618.56 618.56 0 0 1-425.92 0z" fill="#35214C" p-id="4456"></path><path d="M624 848H400a240 240 0 0 1-240-240c0-150.72-8.16-206.4 35.52-298.24a16 16 0 0 1 28.8 13.76c-42.24 88.96-32 147.84-32 284.48A208 208 0 0 0 400 816h224a208 208 0 0 0 208-208c0-148.64 16-260-93.76-370.24A320 320 0 0 0 256 272a16 16 0 0 1-25.6-19.2 352 352 0 0 1 530.72-37.76C880 334.4 864 457.6 864 608a240 240 0 0 1-240 240z" fill="#35214C" p-id="4457"></path><path d="M832 624V448c0-33.44 80-12.96 80 48v80c0 61.44-80 81.28-80 48z m32-155.68v135.36A32 32 0 0 0 880 576c0-80 5.12-96-16-107.68zM112 576v-80c0-61.44 80-81.28 80-48v176c0 33.44-80 12.96-80-48z m48-107.68C138.88 480 144 496 144 576a32 32 0 0 0 16 27.68zM704 912H384a16 16 0 0 1 0-32h320a48 48 0 0 0 48-48v-21.12C678.56 857.6 640.8 848 400 848a236.96 236.96 0 0 1-128-37.12V832a48 48 0 0 0 48 48 16 16 0 0 1 16 16c0 36.48-96 10.4-96-64v-48c0-16 22.24-19.84 32-12.64A205.28 205.28 0 0 0 400 816h224a205.28 205.28 0 0 0 128-44.64c9.44-7.36 32-4.16 32 12.64v48a80 80 0 0 1-80 80z" fill="#35214C" p-id="4458"></path></svg>